<svg width="24" height="24" viewBox="0 0 24 24" fill="none" xmlns="http://www.w3.org/2000/svg">
<path d="M12.857 4.06L18.723 8.877C19.053 9.147 19.25 9.563 19.25 10.007V18.81C19.25 19.624 18.612 20.25 17.867 20.25H15.25V15.5C15.25 14.7707 14.9603 14.0712 14.4446 13.5555C13.9288 13.0397 13.2294 12.75 12.5 12.75H11.5C10.7707 12.75 10.0712 13.0397 9.55547 13.5555C9.03974 14.0712 8.75001 14.7707 8.75001 15.5V20.25H6.13301C5.38801 20.25 4.75001 19.624 4.75001 18.81V10.008C4.75001 9.563 4.94701 9.148 5.27701 8.878L11.143 4.059C11.3837 3.85876 11.6869 3.74912 12 3.74912C12.3131 3.74912 12.6163 3.85976 12.857 4.06ZM17.867 21.749C19.477 21.749 20.75 20.414 20.75 18.809V10.007C20.7512 9.56958 20.6554 9.13734 20.4695 8.74137C20.2836 8.34541 20.0123 7.99556 19.675 7.717L13.81 2.9C13.301 2.4794 12.6613 2.24932 12.001 2.24932C11.3407 2.24932 10.701 2.4794 10.192 2.9L4.32501 7.718C3.98775 7.99656 3.71642 8.34641 3.53054 8.74237C3.34467 9.13834 3.24886 9.57058 3.25001 10.008V18.81C3.25001 20.415 4.52301 21.75 6.13301 21.75L17.867 21.749Z" fill="#0D1E03"/>
</svg>
