<svg width="163" height="90" viewBox="0 0 163 90" fill="none" xmlns="http://www.w3.org/2000/svg">
<path d="M24.5597 40.7045C24.4839 39.8712 24.1468 39.2235 23.5483 38.7614C22.9574 38.2917 22.1127 38.0568 21.0142 38.0568C20.2869 38.0568 19.6809 38.1515 19.196 38.3409C18.7112 38.5303 18.3475 38.7917 18.1051 39.125C17.8627 39.4508 17.7377 39.8258 17.7301 40.25C17.715 40.5985 17.7831 40.9053 17.9347 41.1705C18.0938 41.4356 18.321 41.6705 18.6165 41.875C18.9195 42.072 19.2831 42.2462 19.7074 42.3977C20.1316 42.5492 20.6089 42.6818 21.1392 42.7955L23.1392 43.25C24.2907 43.5 25.3059 43.8333 26.1847 44.25C27.071 44.6667 27.8134 45.1629 28.4119 45.7386C29.018 46.3144 29.4763 46.9773 29.7869 47.7273C30.0975 48.4773 30.2566 49.3182 30.2642 50.25C30.2566 51.7197 29.8854 52.9811 29.1506 54.0341C28.4157 55.0871 27.3589 55.8939 25.9801 56.4545C24.6089 57.0152 22.9536 57.2955 21.0142 57.2955C19.0672 57.2955 17.3703 57.0038 15.9233 56.4205C14.4763 55.8371 13.3513 54.9508 12.5483 53.7614C11.7453 52.572 11.3324 51.0682 11.3097 49.25H16.696C16.7415 50 16.9422 50.625 17.2983 51.125C17.6544 51.625 18.143 52.0038 18.7642 52.2614C19.393 52.5189 20.1203 52.6477 20.946 52.6477C21.7036 52.6477 22.3475 52.5455 22.8778 52.3409C23.4157 52.1364 23.8286 51.8523 24.1165 51.4886C24.4044 51.125 24.5521 50.7083 24.5597 50.2386C24.5521 49.7992 24.4157 49.4242 24.1506 49.1136C23.8854 48.7955 23.4763 48.5227 22.9233 48.2955C22.3778 48.0606 21.6809 47.8447 20.8324 47.6477L18.4006 47.0795C16.3854 46.6174 14.7983 45.8712 13.6392 44.8409C12.4801 43.803 11.9044 42.4015 11.9119 40.6364C11.9044 39.197 12.2907 37.9356 13.071 36.8523C13.8513 35.7689 14.9309 34.9242 16.3097 34.3182C17.6884 33.7121 19.2604 33.4091 21.0256 33.4091C22.8286 33.4091 24.393 33.7159 25.7188 34.3295C27.0521 34.9356 28.0862 35.7879 28.821 36.8864C29.5559 37.9848 29.9309 39.2576 29.946 40.7045H24.5597ZM44.3665 49.4659V39.5455H49.9119V57H44.6165V53.75H44.4347C44.0483 54.8182 43.3892 55.6667 42.4574 56.2955C41.5331 56.9167 40.4157 57.2273 39.1051 57.2273C37.9157 57.2273 36.8703 56.9545 35.9688 56.4091C35.0672 55.8636 34.3665 55.1023 33.8665 54.125C33.3665 53.1402 33.1127 51.9886 33.1051 50.6705V39.5455H38.6619V49.5795C38.6695 50.5265 38.9195 51.2727 39.4119 51.8182C39.9044 52.3636 40.5748 52.6364 41.4233 52.6364C41.9763 52.6364 42.4725 52.5152 42.9119 52.2727C43.3589 52.0227 43.7112 51.6629 43.9688 51.1932C44.2339 50.7159 44.3665 50.1402 44.3665 49.4659ZM59.0057 47.0455V57H53.4489V39.5455H58.733V42.75H58.9261C59.3125 41.6818 59.9716 40.8447 60.9034 40.2386C61.8352 39.625 62.9451 39.3182 64.233 39.3182C65.4602 39.3182 66.5246 39.5947 67.4261 40.1477C68.3352 40.6932 69.0398 41.4583 69.5398 42.4432C70.0473 43.4205 70.2973 44.5644 70.2898 45.875V57H64.733V46.9659C64.7405 45.9962 64.4943 45.2386 63.9943 44.6932C63.5019 44.1477 62.8163 43.875 61.9375 43.875C61.3542 43.875 60.839 44.0038 60.392 44.2614C59.9527 44.5114 59.6117 44.8712 59.3693 45.3409C59.1345 45.8106 59.0133 46.3788 59.0057 47.0455ZM73.7301 57V33.7273H89.6165V38.2955H79.3551V43.0682H88.6051V47.6477H79.3551V57H73.7301ZM92.4489 57V39.5455H98.0057V57H92.4489ZM95.233 37.5114C94.4527 37.5114 93.7822 37.2538 93.2216 36.7386C92.661 36.2159 92.3807 35.5871 92.3807 34.8523C92.3807 34.125 92.661 33.5038 93.2216 32.9886C93.7822 32.4659 94.4527 32.2045 95.233 32.2045C96.0208 32.2045 96.6913 32.4659 97.2443 32.9886C97.8049 33.5038 98.0852 34.125 98.0852 34.8523C98.0852 35.5871 97.8049 36.2159 97.2443 36.7386C96.6913 37.2538 96.0208 37.5114 95.233 37.5114Z" fill="#0D1E03"/>
<path fill-rule="evenodd" clip-rule="evenodd" d="M118.65 27.3768C118.453 27.2387 118.224 27.1531 117.985 27.1279C117.746 27.1028 117.504 27.1389 117.283 27.2331C117.061 27.3272 116.867 27.4761 116.719 27.6658C116.572 27.8556 116.474 28.0798 116.437 28.3175L115.811 32.3125C115.765 32.6047 115.63 32.8753 115.423 33.0864C115.216 33.2975 114.948 33.4386 114.656 33.4897L110.673 34.1882C110.436 34.2296 110.213 34.3307 110.026 34.482C109.839 34.6333 109.693 34.8298 109.603 35.0529C109.513 35.276 109.481 35.5185 109.511 35.7573C109.54 35.9961 109.63 36.2235 109.772 36.418L112.156 39.6848C112.33 39.9238 112.425 40.2113 112.428 40.507C112.43 40.8028 112.34 41.0919 112.17 41.3338L109.847 44.6446C109.709 44.8415 109.623 45.0704 109.598 45.3097C109.573 45.5489 109.609 45.7906 109.703 46.012C109.797 46.2334 109.946 46.4272 110.136 46.5751C110.326 46.723 110.55 46.8202 110.787 46.8574L114.782 47.4836C115.074 47.5294 115.345 47.6653 115.556 47.8723C115.766 48.0793 115.907 48.3471 115.958 48.6382L116.657 52.6218C116.698 52.8589 116.799 53.0815 116.951 53.2686C117.102 53.4557 117.298 53.6012 117.522 53.6914C117.745 53.7815 117.987 53.8134 118.226 53.7839C118.465 53.7544 118.692 53.6645 118.887 53.5228L122.155 51.1386C122.394 50.9644 122.681 50.8694 122.977 50.8668C123.273 50.8643 123.562 50.9544 123.804 51.1244L127.113 53.4477C127.31 53.5862 127.539 53.6721 127.779 53.6974C128.018 53.7228 128.26 53.6867 128.482 53.5925C128.703 53.4984 128.897 53.3493 129.045 53.1594C129.193 52.9695 129.29 52.745 129.327 52.5071L129.951 48.5121C129.997 48.2197 130.133 47.9492 130.341 47.7383C130.548 47.5274 130.817 47.3868 131.108 47.3362L135.092 46.6378C135.329 46.5962 135.551 46.4949 135.738 46.3435C135.925 46.1921 136.07 45.9956 136.16 45.7726C136.25 45.5495 136.282 45.3071 136.253 45.0684C136.223 44.8297 136.133 44.6024 135.991 44.408L133.609 41.1397C133.434 40.9009 133.339 40.6135 133.336 40.3177C133.333 40.022 133.423 39.7328 133.593 39.4907L135.916 36.1814C136.055 35.9845 136.141 35.7556 136.166 35.5162C136.192 35.2769 136.156 35.035 136.062 34.8135C135.968 34.5919 135.819 34.3979 135.629 34.2498C135.439 34.1018 135.215 34.0045 134.977 33.9672L130.981 33.3424C130.689 33.2965 130.418 33.1604 130.207 32.9531C129.996 32.7458 129.856 32.4777 129.805 32.1864L129.106 28.2027C129.065 27.9658 128.963 27.7434 128.812 27.5564C128.661 27.3695 128.464 27.2241 128.241 27.1341C128.018 27.0441 127.776 27.0124 127.537 27.042C127.298 27.0716 127.071 27.1614 126.877 27.3032L123.61 29.686C123.371 29.8602 123.083 29.9552 122.788 29.9577C122.492 29.9603 122.203 29.8702 121.961 29.7002L118.65 27.3768ZM129.959 40.4102C129.959 42.2888 129.213 44.0904 127.885 45.4188C126.556 46.7472 124.755 47.4935 122.876 47.4935C120.997 47.4935 119.196 46.7472 117.867 45.4188C116.539 44.0904 115.793 42.2888 115.793 40.4102C115.793 38.5315 116.539 36.7299 117.867 35.4015C119.196 34.0731 120.997 33.3268 122.876 33.3268C124.755 33.3268 126.556 34.0731 127.885 35.4015C129.213 36.7299 129.959 38.5315 129.959 40.4102Z" fill="#FFFB8F"/>
<path d="M145.688 44.5938C133.875 47.2188 131.119 55.3169 128.389 62.1025L130.869 62.9688L132.116 59.95C132.746 60.1731 133.403 60.3438 133.875 60.3438C148.312 60.3438 152.25 38.0312 152.25 38.0312C150.938 40.6562 141.75 40.9844 135.188 42.2969C128.625 43.6094 126 49.1875 126 51.8125C126 54.4375 128.297 56.7344 128.297 56.7344C132.562 44.5938 145.688 44.5938 145.688 44.5938Z" fill="#FFFB8F"/>
</svg>
