<svg width="86" height="72" viewBox="0 0 86 72" fill="none" xmlns="http://www.w3.org/2000/svg">
<path fill-rule="evenodd" clip-rule="evenodd" d="M18.3 0.691143C17.906 0.414948 17.4482 0.243624 16.9697 0.193318C16.4913 0.143012 16.0078 0.215382 15.5651 0.403607C15.1223 0.591832 14.7347 0.88971 14.4389 1.26916C14.1431 1.64862 13.9488 2.09715 13.8743 2.57248L12.622 10.5625C12.531 11.1468 12.2594 11.6881 11.8453 12.1103C11.4312 12.5325 10.8953 12.8146 10.3128 12.917L2.34549 14.3138C1.87138 14.3967 1.4262 14.599 1.05194 14.9016C0.677673 15.2042 0.38666 15.5971 0.206349 16.0434C0.0260386 16.4896 -0.0376258 16.9744 0.0213603 17.4521C0.0803464 17.9297 0.260039 18.3845 0.543489 18.7735L5.31199 25.3071C5.66035 25.7851 5.8504 26.3601 5.85548 26.9516C5.86056 27.543 5.68042 28.1212 5.34032 28.6051L0.693655 35.2266C0.417461 35.6206 0.246136 36.0784 0.19583 36.5569C0.145524 37.0354 0.217894 37.5188 0.406119 37.9616C0.594343 38.4044 0.892223 38.7919 1.27168 39.0877C1.65113 39.3835 2.09966 39.5778 2.57499 39.6523L10.565 40.9046C11.1488 40.9962 11.6894 41.268 12.1111 41.6821C12.5328 42.0962 12.8145 42.6317 12.9167 43.2138L14.3135 51.1811C14.3964 51.6552 14.5986 52.1004 14.9012 52.4747C15.2038 52.849 15.5968 53.14 16.043 53.3203C16.4893 53.5006 16.9741 53.5643 17.4518 53.5053C17.9294 53.4463 18.3842 53.2666 18.7732 52.9831L25.3097 48.2146C25.7876 47.8663 26.3627 47.6762 26.9541 47.6712C27.5455 47.6661 28.1238 47.8462 28.6077 48.1863L35.2263 52.833C35.6203 53.1098 36.0784 53.2817 36.5572 53.3324C37.0361 53.3831 37.52 53.3108 37.9632 53.1226C38.4064 52.9343 38.7943 52.6361 39.0903 52.2563C39.3863 51.8764 39.5806 51.4274 39.6548 50.9516L40.9015 42.9616C40.9934 42.377 41.2661 41.8358 41.6812 41.414C42.0964 40.9923 42.6332 40.7111 43.2163 40.61L51.1837 39.2131C51.6575 39.1299 52.1024 38.9273 52.4763 38.6245C52.8502 38.3218 53.1409 37.9288 53.3209 37.4826C53.5009 37.0364 53.5643 36.5518 53.5051 36.0743C53.446 35.5968 53.2662 35.1423 52.9828 34.7535L48.2172 28.217C47.8684 27.7393 47.6778 27.1644 47.6722 26.573C47.6667 25.9815 47.8463 25.4032 48.186 24.919L52.8327 18.3003C53.1095 17.9065 53.2814 17.4487 53.3322 16.97C53.3831 16.4913 53.3111 16.0076 53.1231 15.5644C52.9351 15.1213 52.6374 14.7333 52.2579 14.4372C51.8784 14.141 51.4297 13.9465 50.9542 13.8718L42.9613 12.6223C42.3771 12.5306 41.8362 12.2583 41.4145 11.8437C40.9927 11.4291 40.7113 10.8929 40.6097 10.3103L39.2128 2.34298C39.1296 1.86911 38.927 1.42426 38.6242 1.05034C38.3215 0.676431 37.9285 0.385774 37.4823 0.20577C37.0361 0.025767 36.5514 -0.037653 36.074 0.0214886C35.5965 0.0806303 35.1419 0.260385 34.7532 0.54381L28.2195 5.30948C27.7415 5.65784 27.1665 5.84788 26.575 5.85296C25.9836 5.85805 25.4054 5.67791 24.9215 5.33781L18.3 0.691143ZM40.9185 26.7578C40.9185 30.515 39.4259 34.1184 36.7692 36.7752C34.1124 39.4319 30.5091 40.9245 26.7518 40.9245C22.9946 40.9245 19.3912 39.4319 16.7345 36.7752C14.0777 34.1184 12.5852 30.515 12.5852 26.7578C12.5852 23.0006 14.0777 19.3972 16.7345 16.7405C19.3912 14.0837 22.9946 12.5911 26.7518 12.5911C30.5091 12.5911 34.1124 14.0837 36.7692 16.7405C39.4259 19.3972 40.9185 23.0006 40.9185 26.7578Z" fill="#F6FFF3"/>
<path d="M72.375 35.125C48.75 40.375 43.2375 56.5713 37.7775 70.1425L42.7388 71.875L45.2325 65.8375C46.4925 66.2838 47.805 66.625 48.75 66.625C77.625 66.625 85.5 22 85.5 22C82.875 27.25 64.5 27.9062 51.375 30.5312C38.25 33.1562 33 44.3125 33 49.5625C33 54.8125 37.5938 59.4062 37.5938 59.4062C46.125 35.125 72.375 35.125 72.375 35.125Z" fill="#F6FFF3"/>
</svg>
