<svg width="24" height="24" viewBox="0 0 24 24" fill="none" xmlns="http://www.w3.org/2000/svg">
<path d="M3.5 11V14C3.5 17.771 3.5 19.657 4.672 20.828C5.844 21.999 7.729 22 11.5 22H12.5C16.271 22 18.157 22 19.328 20.828C20.499 19.656 20.5 17.771 20.5 14V11" stroke="#0D1E03" stroke-width="1.5"/>
<path d="M9.5 2H14.5L15.152 8.517C15.195 8.95677 15.1454 9.40065 15.0066 9.82013C14.8677 10.2396 14.6426 10.6254 14.3457 10.9526C14.0489 11.2799 13.6868 11.5415 13.2828 11.7204C12.8788 11.8994 12.4419 11.9919 12 11.9919C11.5581 11.9919 11.1212 11.8994 10.7172 11.7204C10.3132 11.5415 9.95114 11.2799 9.65427 10.9526C9.3574 10.6254 9.13231 10.2396 8.99345 9.82013C8.85459 9.40065 8.80505 8.95677 8.848 8.517L9.5 2Z" stroke="#0D1E03" stroke-width="1.5"/>
<path d="M3.33 5.351C3.508 4.461 3.597 4.016 3.778 3.655C3.9666 3.27904 4.23214 2.94694 4.5574 2.68025C4.88266 2.41356 5.26037 2.21826 5.666 2.107C6.056 2 6.51 2 7.418 2H9.5L8.775 9.245C8.73674 9.65963 8.61426 10.0621 8.41506 10.4277C8.21585 10.7934 7.94412 11.1145 7.61649 11.3715C7.28886 11.6285 6.91223 11.8159 6.50966 11.9223C6.10708 12.0287 5.68703 12.0518 5.27522 11.9901C4.86341 11.9285 4.46851 11.7835 4.11469 11.564C3.76087 11.3445 3.45557 11.0551 3.21749 10.7135C2.97941 10.3718 2.81355 9.98523 2.73007 9.5773C2.64659 9.16936 2.64725 8.74867 2.732 8.341L3.33 5.351ZM20.67 5.351C20.492 4.461 20.403 4.016 20.222 3.655C20.0334 3.27904 19.7679 2.94694 19.4426 2.68025C19.1173 2.41356 18.7396 2.21826 18.334 2.107C17.944 2 17.49 2 16.582 2H14.5L15.225 9.245C15.2633 9.65963 15.3857 10.0621 15.5849 10.4277C15.7841 10.7934 16.0559 11.1145 16.3835 11.3715C16.7111 11.6285 17.0878 11.8159 17.4903 11.9223C17.8929 12.0287 18.313 12.0518 18.7248 11.9901C19.1366 11.9285 19.5315 11.7835 19.8853 11.564C20.2391 11.3445 20.5444 11.0551 20.7825 10.7135C21.0206 10.3718 21.1865 9.98523 21.2699 9.5773C21.3534 9.16936 21.3528 8.74867 21.268 8.341L20.67 5.351Z" stroke="#0D1E03" stroke-width="1.5"/>
<path d="M9.5 21.5V18.5C9.5 17.565 9.5 17.098 9.701 16.75C9.83265 16.522 10.022 16.3326 10.25 16.201C10.598 16 11.065 16 12 16C12.935 16 13.402 16 13.75 16.201C13.978 16.3326 14.1674 16.522 14.299 16.75C14.5 17.098 14.5 17.565 14.5 18.5V21.5" stroke="#0D1E03" stroke-width="1.5" stroke-linecap="round"/>
</svg>
