<svg width="308" height="180" viewBox="0 0 308 180" fill="none" xmlns="http://www.w3.org/2000/svg">
<path d="M59.6874 107.768C56.6474 107.768 54.0394 107.272 51.8634 106.28C49.7194 105.288 48.0394 103.896 46.8234 102.104C45.6394 100.28 44.9674 98.136 44.8074 95.672L53.1594 95.288C53.3194 96.504 53.6714 97.544 54.2154 98.408C54.7594 99.272 55.4794 99.928 56.3754 100.376C57.3034 100.824 58.4394 101.048 59.7834 101.048C60.8714 101.048 61.7834 100.92 62.5194 100.664C63.2874 100.408 63.8634 100.024 64.2474 99.512C64.6634 99 64.8714 98.36 64.8714 97.592C64.8714 96.888 64.6954 96.28 64.3434 95.768C64.0234 95.224 63.3674 94.744 62.3754 94.328C61.4154 93.88 59.9594 93.448 58.0074 93.032C54.9994 92.392 52.5674 91.656 50.7114 90.824C48.8874 89.96 47.5434 88.888 46.6794 87.608C45.8474 86.296 45.4314 84.632 45.4314 82.616C45.4314 80.536 45.9594 78.712 47.0154 77.144C48.0714 75.576 49.5914 74.36 51.5754 73.496C53.5594 72.6 55.9274 72.152 58.6794 72.152C61.6234 72.152 64.0874 72.664 66.0714 73.688C68.0874 74.68 69.6554 76.056 70.7754 77.816C71.8954 79.576 72.5674 81.608 72.7914 83.912L64.5354 84.296C64.4394 83.176 64.1354 82.216 63.6234 81.416C63.1434 80.616 62.4714 79.992 61.6074 79.544C60.7754 79.096 59.7674 78.872 58.5834 78.872C57.1114 78.872 55.9434 79.192 55.0794 79.832C54.2474 80.472 53.8314 81.304 53.8314 82.328C53.8314 83.128 54.0234 83.784 54.4074 84.296C54.8234 84.808 55.4954 85.256 56.4234 85.64C57.3514 85.992 58.6474 86.328 60.3114 86.648C63.5754 87.256 66.1514 88.056 68.0394 89.048C69.9274 90.04 71.2714 91.208 72.0714 92.552C72.8714 93.896 73.2714 95.448 73.2714 97.208C73.2714 99.384 72.7274 101.272 71.6394 102.872C70.5514 104.44 68.9834 105.656 66.9354 106.52C64.9194 107.352 62.5034 107.768 59.6874 107.768ZM87.1584 107.576C84.4704 107.576 82.3744 106.728 80.8704 105.032C79.3984 103.304 78.6624 100.904 78.6624 97.832V81.176H86.9184V95.912C86.9184 97.736 87.1744 99.064 87.6864 99.896C88.2304 100.728 89.0784 101.144 90.2304 101.144C91.5104 101.144 92.4864 100.696 93.1584 99.8C93.8624 98.872 94.2144 97.432 94.2144 95.48V81.176H102.47V107H95.0304L94.7904 99.224L95.7504 99.368C95.4304 102.12 94.5504 104.184 93.1104 105.56C91.6704 106.904 89.6864 107.576 87.1584 107.576ZM108.334 107V81.176H115.726L116.062 89.096L115.054 88.904C115.278 86.856 115.774 85.224 116.542 84.008C117.342 82.792 118.334 81.928 119.518 81.416C120.702 80.872 122.014 80.6 123.454 80.6C125.278 80.6 126.846 81 128.158 81.8C129.502 82.568 130.526 83.688 131.23 85.16C131.934 86.6 132.286 88.344 132.286 90.392V107H124.03V93.224C124.03 91.912 123.934 90.792 123.742 89.864C123.55 88.936 123.198 88.232 122.686 87.752C122.206 87.272 121.502 87.032 120.574 87.032C119.23 87.032 118.222 87.576 117.55 88.664C116.91 89.72 116.59 91.24 116.59 93.224V107H108.334ZM138.108 107V72.92H162.3V79.736H141.756L146.46 74.888V90.488L141.756 86.936H161.436V93.752H141.756L146.46 90.2V107H138.108ZM166.459 107V81.176H174.715V107H166.459ZM166.315 78.296V72.152H174.859V78.296H166.315Z" fill="#011A0D"/>
<path fill-rule="evenodd" clip-rule="evenodd" d="M220.3 54.7536C219.906 54.4774 219.448 54.3061 218.97 54.2558C218.491 54.2055 218.008 54.2779 217.565 54.4661C217.122 54.6543 216.735 54.9522 216.439 55.3317C216.143 55.7111 215.949 56.1596 215.874 56.635L214.622 64.625C214.531 65.2093 214.259 65.7506 213.845 66.1728C213.431 66.595 212.895 66.8771 212.313 66.9795L204.345 68.3763C203.871 68.4592 203.426 68.6615 203.052 68.9641C202.678 69.2667 202.387 69.6596 202.206 70.1059C202.026 70.5521 201.962 71.0369 202.021 71.5146C202.08 71.9922 202.26 72.447 202.543 72.836L207.312 79.3696C207.66 79.8476 207.85 80.4226 207.855 81.0141C207.861 81.6055 207.68 82.1837 207.34 82.6676L202.694 89.2891C202.417 89.6831 202.246 90.1409 202.196 90.6194C202.146 91.0979 202.218 91.5813 202.406 92.0241C202.594 92.4669 202.892 92.8544 203.272 93.1502C203.651 93.446 204.1 93.6403 204.575 93.7148L212.565 94.9671C213.149 95.0587 213.689 95.3305 214.111 95.7446C214.533 96.1587 214.814 96.6942 214.917 97.2763L216.313 105.244C216.396 105.718 216.599 106.163 216.901 106.537C217.204 106.911 217.597 107.202 218.043 107.383C218.489 107.563 218.974 107.627 219.452 107.568C219.929 107.509 220.384 107.329 220.773 107.046L227.31 102.277C227.788 101.929 228.363 101.739 228.954 101.734C229.546 101.729 230.124 101.909 230.608 102.249L237.226 106.895C237.62 107.172 238.078 107.344 238.557 107.395C239.036 107.446 239.52 107.373 239.963 107.185C240.406 106.997 240.794 106.699 241.09 106.319C241.386 105.939 241.581 105.49 241.655 105.014L242.901 97.0241C242.993 96.4395 243.266 95.8983 243.681 95.4765C244.096 95.0548 244.633 94.7736 245.216 94.6725L253.184 93.2756C253.658 93.1924 254.102 92.9898 254.476 92.687C254.85 92.3843 255.141 91.9913 255.321 91.5451C255.501 91.0989 255.564 90.6143 255.505 90.1368C255.446 89.6593 255.266 89.2048 254.983 88.816L250.217 82.2795C249.868 81.8018 249.678 81.2269 249.672 80.6355C249.667 80.044 249.846 79.4657 250.186 78.9815L254.833 72.3628C255.109 71.969 255.281 71.5112 255.332 71.0325C255.383 70.5538 255.311 70.0701 255.123 69.6269C254.935 69.1838 254.637 68.7958 254.258 68.4997C253.878 68.2035 253.43 68.009 252.954 67.9343L244.961 66.6848C244.377 66.5931 243.836 66.3208 243.414 65.9062C242.993 65.4916 242.711 64.9554 242.61 64.3728L241.213 56.4055C241.13 55.9316 240.927 55.4868 240.624 55.1128C240.321 54.7389 239.928 54.4483 239.482 54.2683C239.036 54.0883 238.551 54.0248 238.074 54.084C237.596 54.1431 237.142 54.3229 236.753 54.6063L230.219 59.372C229.741 59.7203 229.166 59.9104 228.575 59.9155C227.984 59.9205 227.405 59.7404 226.921 59.4003L220.3 54.7536ZM242.918 80.8203C242.918 84.5775 241.426 88.1809 238.769 90.8377C236.112 93.4944 232.509 94.987 228.752 94.987C224.995 94.987 221.391 93.4944 218.734 90.8377C216.078 88.1809 214.585 84.5775 214.585 80.8203C214.585 77.0631 216.078 73.4597 218.734 70.803C221.391 68.1462 224.995 66.6536 228.752 66.6536C232.509 66.6536 236.112 68.1462 238.769 70.803C241.426 73.4597 242.918 77.0631 242.918 80.8203Z" fill="#F6FFF3"/>
<path d="M274.375 89.1875C250.75 94.4375 245.237 110.634 239.777 124.205L244.739 125.938L247.233 119.9C248.492 120.346 249.805 120.688 250.75 120.688C279.625 120.688 287.5 76.0625 287.5 76.0625C284.875 81.3125 266.5 81.9688 253.375 84.5938C240.25 87.2188 235 98.375 235 103.625C235 108.875 239.594 113.469 239.594 113.469C248.125 89.1875 274.375 89.1875 274.375 89.1875Z" fill="#F6FFF3"/>
</svg>
